<svg xmlns="http://www.w3.org/2000/svg" xmlns:xlink="http://www.w3.org/1999/xlink" width="1500" height="600" viewBox="0 0 1500 600"><defs><filter id="a" x="195" y="167" width="1118" height="272" filterUnits="userSpaceOnUse"><feOffset dx="3" dy="3" input="SourceAlpha"/><feGaussianBlur stdDeviation="5" result="b"/><feFlood flood-opacity="0.478"/><feComposite operator="in" in2="b"/><feComposite in="SourceGraphic"/></filter><filter id="c" x="-104" y="-132" width="330" height="330" filterUnits="userSpaceOnUse"><feOffset dx="3" dy="3" input="SourceAlpha"/><feGaussianBlur stdDeviation="5" result="d"/><feFlood flood-opacity="0.161"/><feComposite operator="in" in2="d"/><feComposite in="SourceGraphic"/></filter><filter id="e" x="1308" y="-99" width="379" height="297" filterUnits="userSpaceOnUse"><feOffset dx="-3" dy="3" input="SourceAlpha"/><feGaussianBlur stdDeviation="5" result="f"/><feFlood flood-opacity="0.161"/><feComposite operator="in" in2="f"/><feComposite in="SourceGraphic"/></filter><filter id="g" x="1217.247" y="322.247" width="458.507" height="458.507" filterUnits="userSpaceOnUse"><feOffset dx="-3" dy="-3" input="SourceAlpha"/><feGaussianBlur stdDeviation="5" result="h"/><feFlood flood-opacity="0.161"/><feComposite operator="in" in2="h"/><feComposite in="SourceGraphic"/></filter><filter id="i" x="-40.488" y="445.14" width="250.715" height="282.315" filterUnits="userSpaceOnUse"><feOffset dx="3" dy="-3" input="SourceAlpha"/><feGaussianBlur stdDeviation="3" result="j"/><feFlood flood-opacity="0.161"/><feComposite operator="in" in2="j"/><feComposite in="SourceGraphic"/></filter><clipPath id="l"><rect width="1500" height="600"/></clipPath></defs><g id="k" clip-path="url(#l)"><rect width="1500" height="600" fill="#df4242"/><g transform="matrix(1, 0, 0, 1, 0, 0)" filter="url(#a)"><text transform="translate(211 369)" fill="#ffabab" stroke="red" stroke-width="1" font-size="180" font-family="Ravie"><tspan x="0" y="0">My Goals</tspan></text></g><g transform="matrix(1, 0, 0, 1, 0, 0)" filter="url(#c)"><g transform="translate(-92 -120)" fill="#ff8d8d" stroke="red" stroke-width="1"><circle cx="150" cy="150" r="150" stroke="none"/><circle cx="150" cy="150" r="149.5" fill="none"/></g></g><g transform="matrix(1, 0, 0, 1, 0, 0)" filter="url(#e)"><g transform="translate(1326 -87)" fill="#ff9797" stroke="red" stroke-width="1"><rect width="349" height="267" stroke="none"/><rect x="0.5" y="0.5" width="348" height="266" fill="none"/></g></g><g transform="matrix(1, 0, 0, 1, 0, 0)" filter="url(#g)"><g transform="translate(1235.25 571.47) rotate(-45)" fill="#ff9b9b"><path d="M 326.1274719238281 278.5 L 0.872527003288269 278.5 L 163.4999542236328 0.9888994693756104 L 326.1274719238281 278.5 Z" stroke="none"/><path d="M 163.4999542236328 1.977813720703125 L 1.74505615234375 278 L 325.2549438476562 278 L 163.4999542236328 1.977813720703125 M 163.4999542236328 0 L 327 279 L 0 279 L 163.4999542236328 0 Z" stroke="none" fill="red"/></g></g><g transform="matrix(1, 0, 0, 1, 0, 0)" filter="url(#i)"><path d="M-33.988,518.882,70.242,457.7l63.444,29.456v61.178l63.444,24.924L-33.988,720.544Z" fill="#ffa1a1" stroke="red" stroke-width="1"/></g></g></svg>